<svg version="1.1" id="Layer_1" xmlns="http://www.w3.org/2000/svg" x="0" y="0" width="136" height="69.2" xml:space="preserve"><style>.st0{fill:#58585a}.st1{fill:#038004}</style><path class="st0" d="M46.6 17c.1-4.7 1.9-9.5 6.1-13.1C54.9 2 57.5.8 60.3.3c.4-.1.4.1.4.4V3c0 .4-.1.6-.5.8-3.2 1.2-5.6 3.5-7.3 6.5-3 5.3-2.3 12.3 1.5 17 1.7 2.2 3.8 3.8 6.4 4.9.3.1.4.3.4.6v2.4c0 .4-.1.5-.5.4-4.4-1-8-3.2-10.6-6.8-2.4-3.3-3.5-7-3.5-11.8z"/><path class="st1" d="M74.7 34c-.4-1 .3-1.5 1.3-2 4.7-2.6 7.5-6.5 8.2-12 .9-7.1-3.4-13.6-9.5-16.2-.4-.2-.5-.3-.5-.7V.9c0-.5.1-.5.5-.4 7 1.7 11.6 6 13.4 12.9 1.6 5.9.6 11.5-3.2 16.4-2.5 3.3-5.8 5.2-9.9 6-.4.1-.4 0-.4-.3.1-.4.1-.8.1-1.5z"/><path class="st0" d="M107.5 52.7c-1.3-1.2-1.3-2 .2-2.9-.8-.6-1.3-1.4-1.3-2.5 0-1.5.9-2.7 2.3-3 1.2-.3 2.5-.3 3.7.3.3.1.4.1.6-.1.4-.3.9-.5 1.5-.6.3-.1.5 0 .5.4v.6c0 .3-.1.4-.4.4-.2 0-.3 0-.5.1-.4.1-.5.1-.4.6.8 1.9-.2 3.7-2.2 4.1-.7.2-1.4.2-2.1.1-.5-.1-.8.2-.9.6-.1.5.3.7.7.8.9.1 1.8.1 2.7.1.3 0 .6 0 .9.1 1 .2 1.7.7 1.9 1.7.2 1-.2 2-1.1 2.5-.3.2-.6.3-.9.4-1.7.4-3.4.4-5.2-.1-.5-.1-.9-.4-1.2-.8-.7-.9-.4-2.1.6-2.6.3 0 .4-.1.6-.2zm4.4-5.5c0-1-.7-1.7-1.7-1.7s-1.8.7-1.8 1.7.8 1.7 1.7 1.7c1 0 1.8-.7 1.8-1.7zm-1.4 8.2c.6 0 1.3 0 1.9-.3.3-.2.6-.4.6-.8s-.3-.6-.7-.7c-.3-.1-.5-.1-.8-.1-.7-.1-1.5-.1-2.2-.2-.6-.1-1.2.2-1.3.7-.1.5.2 1 .8 1.2.5.1 1.1.1 1.7.2zm-99.4-2.2H11c-.7 0-1.5.2-2.1-.1s-.5-1.2-.8-1.9c-.4-1.2-.1-1-1.4-1H4.2c-.3 0-.5.1-.6.4-.2.7-.5 1.4-.7 2.1-.1.3-.3.4-.6.4H.4c.6-1.9 1.2-3.8 1.8-5.6.7-2.1 1.4-4.2 2-6.3.1-.4.3-.7.8-.6.7.1 1.5-.3 2 .1.4.4.5 1.2.7 1.8L11 52.7c0 .3 0 .3.1.5zm-6.8-4.7h2.5c.2 0 .4 0 .3-.3-.4-1.4-.9-2.7-1.4-4.2-.5 1.6-.9 3-1.4 4.5zm57.9-28.7c-1.6.1-3-.1-4.3-1-.4-.3-.5-.6-.5-1 0-.5.4-.5.7-.6 1.5-.3 3-.4 4.5-.5 3.9-.2 7.8-.2 11.7.4.2 0 .5.1.7.1.3.1.6.2.6.6s-.3.6-.7.6c-1.6.1-3.1.4-4.7.6-2.7.4-5.4.7-8 .8zM59.6 15c-.4-.1-.9-.1-1.4-.3-.3-.1-.6-.3-.6-.6-.1-.3.1-.6.4-.8.9-.7 1.9-1.2 2.9-1.7 3.8-1.8 7.7-3.5 11.8-4.5.2 0 .6-.1.9-.1.4-.1.7 0 .8.4.1.4-.1.6-.4.8-1.9 1-3.7 2.1-5.6 3.1-2 1.1-3.9 2.1-6 3-.8.4-1.8.6-2.8.7zm-.8 6.8c1.3.1 2.5.4 3.6.7 3.9 1 7.8 2.2 11.5 4 .4.2.7.4 1.1.6.3.2.5.4.4.8s-.5.5-.8.4c-.7-.2-1.5-.4-2.2-.5-3.8-.6-7.5-1.5-11.1-2.6-1.2-.4-2.2-1.1-3-2.1-.2-.2-.4-.5-.2-.9.1-.3.4-.5.7-.4zm24.7 23.7l.9-.6c.7-.5 1.4-.7 2.2-.7 1.1 0 1.9.6 1.9 1.8.1 2.3 0 4.6 0 6.9 0 .2-.1.3-.3.3-1.8.2-1.8.2-1.8-1.6v-4.5c0-1-.5-1.4-1.5-1-.5.2-.9.5-1.3.8-.2.2-.2.4-.2.6v5.1c0 .4-.1.6-.6.6-.5-.1-1.2.2-1.5-.1s-.1-1-.1-1.5V45c0-.5.2-.7.7-.6h.3c1.2-.1 1.2-.1 1.3 1.1zm18.4 3.6h-2.4c-.3 0-.4.1-.4.4.1 1 .6 1.7 1.4 2 .9.2 1.6-.1 2.1-.9.1-.2.3-.2.5-.1.3.2.7.3 1.1.4.3.1.3.3.2.5-.9 1.5-2.8 2.2-4.6 1.7-1.7-.5-2.8-2-2.9-4 0-.6 0-1.2.1-1.8.3-1.6 1.6-2.8 3.2-3.1s3.2.3 4 1.6c.6.9.6 1.9.6 2.9 0 .3-.2.3-.4.3-.9.1-1.7.1-2.5.1zm-.9-1.3h1.5c.3 0 .4-.1.4-.4-.1-.9-.8-1.7-1.6-1.8-.9-.1-1.7.4-1.9 1.4-.2.8-.2.8.6.8h1zm-74.5 4.1c-.6.6-1.3 1.1-2.1 1.3-1.5.4-2.8-.4-2.9-2-.1-2.2 0-4.4 0-6.6 0-.3.1-.4.4-.3h.1c1.8-.1 1.8-.1 1.8 1.7v4.2c0 1.1.7 1.5 1.7 1.1.8-.4 1.3-.8 1.3-1.9-.1-1.5 0-3 0-4.5 0-.4.1-.6.5-.6 1.6 0 1.6 0 1.6 1.6v6.7c0 .4-.1.6-.6.6H28c-.4 0-.9.1-1.3-.1-.3-.1 0-.7-.2-1.2zm103.8-2.6c0 1.2-.1 2.4.2 3.5.1.2 0 .3-.2.3h-1c-.4 0-.6-.1-.7-.5 0-.4-.2-.3-.4-.1-.7.5-1.5.8-2.4.8-1.2 0-2.1-.7-2.5-1.7-.4-.9 0-2.1.8-2.8.7-.7 1.6-1 2.6-1.2.3-.1.7-.1 1-.2.3-.1.7.1.8-.3.1-.4 0-.8-.4-1.2-.6-.5-1.8-.5-2.6.1-.3.2-.5.6-.7.6-.3-.1-.6-.4-.9-.7-.3-.2-.3-.4 0-.7 1.2-1.2 3.4-1.6 5-.9 1 .5 1.5 1.3 1.5 2.4-.1 1-.1 1.8-.1 2.6zm-1.9.6V49c0-.2 0-.3-.2-.3-1 .2-2.1.4-2.8 1.3-.3.4-.4.9-.1 1.3.2.4.6.6 1.1.6.7-.1 1.4-.4 1.9-.9.3-.3 0-.8.1-1.1zm-60.6 3.3h-1.6c-.6 0-.3-.6-.6-.8-.2 0-.3.2-.5.3-.9.6-1.8.8-2.8.6-1.8-.5-2.5-2.4-1.5-3.9.5-.8 1.3-1.2 2.2-1.5.7-.3 1.5-.4 2.2-.5.3 0 .4-.1.4-.4 0-.7-.5-1.2-1.2-1.3-.9-.1-1.6.1-2.2.8-.3.3-.5.3-.8 0-1-.8-1-.9.1-1.6 1.3-.8 2.7-.9 4.2-.5 1.1.4 1.7 1.4 1.8 2.7v4c0 .7.1 1.4.3 2.1zm-2.2-3.4V49c.1-.4-.1-.5-.5-.4-.2.1-.4.1-.6.1-.7.2-1.4.4-1.9 1.1-.3.4-.4.9-.2 1.4s.7.7 1.2.6c.7-.1 1.3-.4 1.8-.9.4-.2.1-.7.2-1.1zM31 51.7c.1-.1.2-.1.2-.2.6-.5 1.1-.8 1.9-.2.5.4 1.3.4 2 .3.5-.1.9-.3.9-.8.1-.5-.3-.8-.7-.9-.3-.1-.7-.2-1-.2-.5-.1-.9-.2-1.3-.4-1.2-.4-1.9-1.4-1.8-2.4.1-1.2.7-2 1.8-2.4 1.8-.7 3.4-.3 4.9.9-.4.3-.7.6-1.1.9-.2.2-.3 0-.5 0-.5-.3-.9-.6-1.4-.6s-.9 0-1.3.3c-.5.5-.5 1.2.2 1.5.3.2.7.3 1.1.4.6.1 1.1.3 1.7.5 1 .3 1.7 1 1.7 2 .1 1.1-.5 1.9-1.4 2.5-1.9 1-4.6.5-5.9-1.2zm-16.3-3.3c0 .8.1 1.4.3 2 .2.7.6 1.1 1.3 1.2.6.1 1.2-.3 1.5-1 .2-.5.4-.5.8-.3 1.2.6 1.3.8.4 1.9-1.2 1.4-3.6 1.6-5.1.3-2.2-1.9-2.1-6 .3-7.7 1.8-1.3 4.2-.8 5.2 1.1.2.4.1.5-.3.6-.2 0-.4.1-.6.2-.5.2-.8.2-1.1-.3-.7-.9-1.9-.6-2.4.5-.3.4-.4.9-.3 1.5zm44-2c-.5.1-1 .3-1.5.4-.3.1-.4 0-.5-.2-.4-.5-.9-.8-1.5-.6-.7.2-1 .7-1.2 1.3-.3 1.1-.2 2.2.2 3.2.2.6.6 1 1.3 1.1s1.2-.3 1.4-.9c.2-.6.5-.6 1-.3 1.1.6 1.1.6.4 1.7-1.2 1.7-3.9 1.9-5.5.3-1.8-1.9-1.8-5.4.1-7.2 1.9-1.8 4.9-1.2 5.8 1.2zm-17.9 2.2v-2.2c0-.4-.1-.6-.5-.5-.3 0-.7.2-.8-.1-.1-.4-.1-.9 0-1.3.1-.3.4-.2.7-.1.5 0 .7-.1.7-.7-.1-.6 0-1.2 0-1.8 0-.3.1-.4.4-.4 1.8-.1 1.8-.1 1.8 1.7v.1c0 1.1 0 1.1 1.1 1.1.4 0 .6.1.5.5v.4c.1.5-.1.7-.6.6-1 0-1 0-1 1v3.6c0 .8.2 1 1 1.1.5 0 .6.2.6.6 0 1.3 0 1.3-1.3 1.2-1.6-.1-2.5-1.1-2.5-2.7-.1-.7-.1-1.4-.1-2.1zm53-5.7c0 .5-.1 1 .1 1.3s.7.1 1.1.1c.3 0 .4.1.4.4.1 1.2.1 1.2-1.1 1.2-.5 0-.5.2-.5.6v3.9c0 .9.2 1.1 1.1 1.2.4 0 .5.2.5.6 0 1.4 0 1.4-1.4 1.3-1.5-.2-2.3-1.1-2.3-2.6v-4.3c0-.5-.1-.6-.6-.6-.2 0-.7.2-.7-.1-.1-.4-.1-.9 0-1.3.1-.3.5-.2.7-.1.5.1.7-.1.7-.7V42c0-.3.1-.5.4-.4h.4c1.2-.1 1.2-.1 1.2 1.3zm-18 4v-5.7c0-.4.1-.6.5-.5h1.3c.4 0 .6.1.5.5v11.4c0 .4-.1.6-.5.5-.6-.1-1.4.3-1.8-.1-.3-.4-.1-1.1-.1-1.7.1-1.4.1-2.9.1-4.4zm59.7 0v5.9c0 .4-.1.5-.5.5-1.7 0-1.7 0-1.7-1.6V41.3c0-.5.1-.6.6-.6 1.6 0 1.6 0 1.6 1.6v4.6zm-16.7-.4c.3-.5.6-.8.8-1.1.3-.4.7-.7 1.2-1 .9-.4 1-.4 1 .6v.1c0 .4.1.8 0 1.1-.2.4-.6.2-1 .3-1.2.4-1.9 1.4-1.9 2.6v3.6c0 .4-.1.5-.5.5-1.8 0-1.8.1-1.7-1.7v-6.6c0-.5.1-.7.6-.6h.8c.9 0 .8-.2.9.9-.2.4-.2.7-.2 1.3zm-72 2.3v-4c0-.4.1-.5.5-.5 1.7 0 1.7 0 1.7 1.7v6.6c0 .4-.1.6-.6.6-1.6 0-1.6 0-1.6-1.6v-2.8zm-23.2-5.5c.7-.9 1.4-1.6 2-2.3.1-.1.2-.2.4-.2h2.3c-1.1.9-2.1 1.7-3.1 2.4-.4.3-1 .1-1.6.1zm23.2-1.7c0-1.1 0-1.1 1-1.1 1.1 0 1.1 0 1.1 1.1s0 1.1-1.1 1.1c-1 .1-1 .1-1-1.1z"/><path class="st1" d="M56.4 63.1l.1-1.4h-.1l-.4 1.2-2.3 4.1h-.3l-2.5-4.1-.5-1.2h-.1l.2 1.4v6.1h-1v-9.1h.8l2.8 4.7.4 1 .4-1 2.7-4.6h.8v9.1h-1.1v-6.2zm8 5.5c-.3.2-.6.4-1 .5-.4.1-.8.2-1.3.2s-.9-.1-1.3-.2c-.4-.2-.7-.4-.9-.7-.2-.3-.4-.7-.5-1.1-.1-.4-.2-.9-.2-1.4 0-1.1.2-2 .7-2.5.5-.6 1.2-.9 2.1-.9.3 0 .6 0 .9.1.3.1.6.2.8.4.2.2.4.4.6.8.1.3.2.8.2 1.3 0 .3 0 .6-.1.9h-4.2c0 .4 0 .7.1 1s.2.5.4.7c.2.2.4.4.6.5.3.1.6.2 1 .2.3 0 .6-.1.9-.2.3-.1.5-.2.7-.4l.5.8zm-2.3-5.2c-.5 0-.9.1-1.2.4-.3.3-.5.7-.6 1.4h3.2c0-.7-.1-1.1-.4-1.4-.1-.2-.5-.4-1-.4zm.3-3.6h1.2v.3l-1.3 1.7h-.6l.7-2zm5.2 6l-2.2-3.2h1.3l1.2 1.8.4.7.4-.7 1.3-1.8h1.2L69 65.7l2.3 3.4H70l-1.4-2-.4-.8-.4.8-1.4 2h-1.2l2.4-3.3zm5-5.1c0-.2.1-.4.2-.5.2-.2.3-.2.5-.2s.4.1.5.2c.1.1.2.3.2.5s-.1.4-.2.5c-.1.1-.3.2-.5.2s-.4-.1-.5-.2c-.1-.1-.2-.3-.2-.5zm.3 2h1v6.5h-1v-6.5zm7.7 6c-.3.2-.6.3-.9.4-.4.1-.7.1-1.1.1-.5 0-.9-.1-1.3-.2-.3-.2-.6-.4-.9-.7s-.4-.7-.5-1.1c-.1-.4-.1-.9-.1-1.4 0-1.1.2-1.9.7-2.5s1.2-.9 2.1-.9c.4 0 .8 0 1.1.1.3.1.6.2.8.3l-.3.9c-.2-.1-.4-.2-.7-.3-.2-.1-.5-.1-.8-.1-1.2 0-1.8.8-1.8 2.5 0 .3 0 .6.1.9.1.3.2.6.3.8s.4.4.6.6.6.2.9.2c.3 0 .6 0 .8-.1l.6-.3.4.8zm.7-2.8c0-1.1.2-1.9.7-2.5.5-.6 1.2-.9 2.1-.9.5 0 .9.1 1.3.2.4.2.7.4.9.7.2.3.4.7.5 1.1.1.4.2.9.2 1.4 0 1.1-.2 1.9-.7 2.5-.5.6-1.2.9-2.1.9-.5 0-.9-.1-1.3-.2-.4-.2-.7-.4-.9-.7-.2-.3-.4-.7-.5-1.1-.1-.4-.2-.9-.2-1.4zm1.1 0c0 .3 0 .6.1.9s.2.6.3.8.3.4.5.5.5.2.8.2c1.2 0 1.8-.8 1.8-2.5 0-.3 0-.7-.1-1-.1-.3-.2-.6-.3-.8s-.3-.4-.5-.5c-.2-.1-.5-.2-.8-.2-1.2.1-1.8.9-1.8 2.6z"/></svg>